<svg width="424" height="424" viewBox="0 0 424 424" fill="none" xmlns="http://www.w3.org/2000/svg">
<line x1="68.3381" y1="73.1546" x2="69.2991" y2="348.007" stroke="black" stroke-width="17.8899" stroke-linecap="round"/>
<line x1="36.6131" y1="37.386" x2="37.3901" y2="382.986" stroke="black" stroke-width="17.8899" stroke-linecap="round"/>
<line x1="343.996" y1="71.5373" x2="344.765" y2="380.545" stroke="black" stroke-width="17.8899" stroke-linecap="round"/>
<line x1="378.917" y1="33.364" x2="378.136" y2="326.921" stroke="black" stroke-width="17.8899" stroke-linecap="round"/>
<line x1="206.578" y1="71.5283" x2="207.539" y2="346.38" stroke="black" stroke-width="17.8899" stroke-linecap="round"/>
<line x1="69.8344" y1="347.906" x2="344.672" y2="344.886" stroke="black" stroke-width="17.8899" stroke-linecap="round"/>
<line x1="37.3386" y1="382.939" x2="343.889" y2="380.634" stroke="black" stroke-width="17.8899" stroke-linecap="round"/>
<line x1="69.0212" y1="73.0522" x2="343.859" y2="70.0321" stroke="black" stroke-width="17.8899" stroke-linecap="round"/>
<line x1="37.3025" y1="37.3037" x2="376.398" y2="33.3971" stroke="black" stroke-width="17.8899" stroke-linecap="round"/>
<line x1="70.5266" y1="207.593" x2="138.026" y2="205.954" stroke="black" stroke-width="17.8899" stroke-linecap="round"/>
<line x1="138.21" y1="74.029" x2="137.457" y2="299.279" stroke="black" stroke-width="17.8899" stroke-linecap="round"/>
<line x1="173.209" y1="223.622" x2="173.227" y2="299.247" stroke="black" stroke-width="17.8899" stroke-linecap="round"/>
<line x1="283.799" y1="138.24" x2="283.799" y2="273.227" stroke="black" stroke-width="17.8899" stroke-linecap="round"/>
<line x1="145.724" y1="134.552" x2="193.914" y2="81.1524" stroke="black" stroke-width="17.8899" stroke-linecap="round"/>
<line x1="346.184" y1="379.379" x2="368.807" y2="361.28" stroke="black" stroke-width="17.8899" stroke-linecap="round"/>
<line x1="215.917" y1="204.474" x2="332.143" y2="80.8924" stroke="black" stroke-width="17.8899" stroke-linecap="round"/>
<line x1="141.493" y1="275.215" x2="169.502" y2="247.206" stroke="black" stroke-width="17.8899" stroke-linecap="round"/>
<line x1="154.138" y1="141.854" x2="335.39" y2="333.769" stroke="black" stroke-width="17.8899" stroke-linecap="round"/>
<line x1="285.425" y1="138.24" x2="335.842" y2="138.24" stroke="black" stroke-width="17.8899" stroke-linecap="round"/>
<line x1="285.539" y1="269.277" x2="335.957" y2="269.923" stroke="black" stroke-width="17.8899" stroke-linecap="round"/>
<line x1="283.799" y1="205.734" x2="307.381" y2="205.734" stroke="black" stroke-width="17.8899" stroke-linecap="round"/>
</svg>
