<svg xmlns="http://www.w3.org/2000/svg" fill="none" width="80" height="80" viewBox="0 0 424 424">

	<style>
		#path {
			filter: drop-shadow(0 0 5px currentColor);
		}
	</style>


	<g>
		<path id="path" stroke="#555" stroke-linecap="round" stroke-width="15"
			d="M68.34 73.15l.96 274.86M36.61 37.39l.78 345.6M344 71.54l.76 309.01M378.92 33.36l-.78 293.56M206.58 71.53l.96 274.85M69.83 347.91l274.84-3.02M37.34 382.94l306.55-2.31M69.02 73.05l274.84-3.02M37.3 37.3l339.1-3.9M70.53 207.59l67.5-1.64M138.21 74.03l-.75 225.25M173.21 223.62l.02 75.63M283.8 138.24v134.99M145.72 134.55l48.19-53.4M346.18 379.38l22.63-18.1M215.92 204.47L332.14 80.89M141.49 275.21l28.01-28M154.14 141.85l181.25 191.92M285.43 138.24h50.41M285.54 269.28l50.42.64M283.8 205.73h23.58"
			stroke-dasharray="200">


		</path>

	</g>
	<animate attributeName="stroke-dashoffset" from="0" to="400" dur="1200ms" fill="freeze" repeatCount="indefinite" />
</svg>